<svg xmlns="http://www.w3.org/2000/svg" width="331" height="32" viewBox="0 0 331 32"><defs><style>.a{fill:#fff;}.b{fill:#c00;}</style></defs><g transform="translate(-232.709 -429.624)"><path class="a" d="M563.684,448.628c-1.589,4.133-7.076,5.413-13,5.413s-9.727-1.286-8.841-5.413h7.528c-.194,1.1.473,1.806,2.7,1.806s3.662-.721,4.081-1.807c1.036-2.7-13.863-.062-11.491-6.239,1.327-3.459,6.555-5.082,12.453-5.082s9.245,1.274,8.539,5.079h-7.387c.118-1.018-.195-1.791-2.414-1.791s-3.411.786-3.8,1.794c-1.058,2.758,14,.074,11.632,6.24" transform="translate(-2.037 -0.046)"/><path class="a" d="M431.1,453.576h-7.529l6.061-15.788h7.531Z" transform="translate(-1.264 -0.05)"/><path class="a" d="M488.448,453.576h-7.53l6.061-15.788h7.53Z" transform="translate(-1.639 -0.05)"/><path class="a" d="M537.215,453.576H518.907l6.063-15.788h18.309l-1.166,3.03H531.336L530.114,444h8.964l-1.161,3.028h-8.967l-1.227,3.2H538.5Z" transform="translate(-1.888 -0.05)"/><path class="a" d="M386.555,453.576h-6.092l-5.11-9.324-3.579,9.324H365.7l6.062-15.788h7.074l4.509,8.3,3.186-8.3h6.091Z" transform="translate(-0.885 -0.05)"/><path class="a" d="M514.067,453.576h-6.091l-5.112-9.324-3.579,9.324h-6.079l6.061-15.788h7.074l4.511,8.3,3.184-8.3h6.091Z" transform="translate(-1.719 -0.05)"/><path class="a" d="M294.527,448.29c-2.062,5.37-7.146,5.814-10.768,5.814a24.335,24.335,0,0,1-5.235-.527l1.286-3.35c3.451.4,6.4.1,7.557-2.908l3.661-9.532h7.531l-4.033,10.5" transform="translate(-0.315 -0.05)"/><path class="a" d="M337.471,437.788H325.76L319.7,453.576h7.53l2.2-5.732h4.186c6.96,0,10.707-1.86,11.923-5.024s-1.1-5.033-8.067-5.033m.535,5.033a3.548,3.548,0,0,1-3.232,1.994h-4.182l1.535-4h4.189c1.372,0,2.133.852,1.69,2" transform="translate(-0.584 -0.05)"/><path class="a" d="M453.63,437.788H441.918l-6.062,15.788h7.529l2.2-5.732h2.276l1.488,5.732h8.221l-2.012-6.307c3.335-.774,5.317-2.313,6.138-4.449,1.214-3.166-1.1-5.033-8.068-5.033m.535,5.033a3.55,3.55,0,0,1-3.233,1.994h-4.181l1.535-4h4.188c1.372,0,2.133.852,1.691,2" transform="translate(-1.344 -0.05)"/><path class="a" d="M470.294,450.23l4.789-12.442H467.55l-6.063,15.788h17.1l1.285-3.346Z" transform="translate(-1.512 -0.05)"/><path class="a" d="M316.117,437.788h-6.735a3.266,3.266,0,0,0-2.316,1.172L294.45,453.577h6.22l2.507-3.108h6.8l.12,3.108h7.53l-1.509-15.789m-10.493,9.646,4.054-5.047.187,5.047Z" transform="translate(-0.419 -0.05)"/><path class="a" d="M362.109,437.788h-6.735a3.262,3.262,0,0,0-2.316,1.172L340.44,453.577h6.22l2.508-3.108h6.8l.12,3.108h7.53l-1.508-15.789m-10.494,9.646,4.054-5.047.188,5.047Z" transform="translate(-0.72 -0.05)"/><path class="a" d="M419.984,437.788H413.25a3.266,3.266,0,0,0-2.315,1.172l-12.618,14.618h6.221l2.506-3.108h6.8l.12,3.108h7.529l-1.509-15.789m-10.491,9.646,4.052-5.047.187,5.047Z" transform="translate(-1.099 -0.05)"/></g><g transform="translate(-232.211 -429.624)"><circle class="a" cx="16" cy="16" r="16" transform="translate(232.211 429.624)"/><path class="b" d="M248.536,455.077h1.151l-.051-1.372Z" transform="translate(-0.107 -0.16)"/><path class="b" d="M263.15,446.948a15.166,15.166,0,0,0-.074-3.32c0-.019-.022-.019-.026,0a8.971,8.971,0,0,1-3.3,5.056.018.018,0,0,1-.024-.028,10.951,10.951,0,0,0,3.026-6.7,14.854,14.854,0,0,0-1.521-3.773c-.01-.014-.027-.01-.023.009a10.294,10.294,0,0,1-2.6,8.323.018.018,0,1,1-.029-.021,11.682,11.682,0,0,0,1.69-9.78,15,15,0,0,0-24.134,0,11.685,11.685,0,0,0,1.689,9.78.017.017,0,1,1-.028.021,10.29,10.29,0,0,1-2.6-8.323c0-.019-.015-.023-.024-.009a14.854,14.854,0,0,0-1.521,3.773,10.956,10.956,0,0,0,3.026,6.7.018.018,0,0,1-.023.028,8.968,8.968,0,0,1-3.3-5.056c0-.019-.025-.019-.026,0a15.17,15.17,0,0,0-.073,3.32,9.028,9.028,0,0,0,2.744,3.944c.02.018,0,.044-.02.033a8.136,8.136,0,0,1-2.444-2.227c-.009-.014-.025-.009-.021.008a15,15,0,0,0,29.361,0c0-.017-.011-.022-.021-.008a8.129,8.129,0,0,1-2.445,2.227c-.022.011-.04-.015-.02-.033a9.032,9.032,0,0,0,2.746-3.944m-20.507,9.78a6.628,6.628,0,0,1-1.423-.141l.35-.911c.936.109,1.739.028,2.053-.79l.993-2.589h2.045l-1.094,2.852a2.745,2.745,0,0,1-2.923,1.579m7-.141-.032-.847h-1.847l-.68.847h-1.689l3.426-3.97a.876.876,0,0,1,.629-.32h1.829l.41,4.29Zm7.237,0h-4.641l1.645-4.29h2.045l-1.3,3.381h2.6Zm-1.887-9.06c-3.068,2.985-7.65,1.078-7.184-2.588.358-2.826,3.823-5.642,6.447-7.169a.02.02,0,0,0,0-.033c-.344-.328-1.058-1.066-1.517-1.621a3.017,3.017,0,0,0-4.82.084l-7.544.7a.023.023,0,0,0,0,.047l8.087.468c1.434.081,1.9,1.382.518,2.429-5.136,3.893-6.052,8.013-4.9,11.278a.021.021,0,0,1-.038.017,6.633,6.633,0,0,1-1.019-2.345,9.655,9.655,0,1,1,11.971-1.27" transform="translate(0)"/></g></svg>